<?xml version="1.0" encoding="utf-8"?>
<svg viewBox="106.686 71.124 177.81 106.687" xmlns="http://www.w3.org/2000/svg">
  <g transform="matrix(1, 0, 0, 1, -88.904999, -294.552002)">
    <polygon style="stroke: rgb(0, 0, 0); fill: rgb(255, 107, 1);" points="320.058 472.362 373.401 435.252 373.401 385.771 355.62 373.401 337.839 385.771 337.839 410.511 320.058 398.141 302.277 410.511 302.277 385.771 284.496 373.401 266.715 385.771 266.715 435.252"/>
    <polygon style="stroke: rgb(0, 0, 0); fill: rgb(255, 225, 204);" points="284.927 398.413 266.715 385.771 284.496 373.401 302.277 385.771"/>
    <polygon style="stroke: rgb(0, 0, 0); fill: rgb(255, 225, 204);" points="354.948 398.413 337.839 385.771 355.62 373.401 373.401 385.771"/>
    <polygon style="stroke: rgb(0, 0, 0); fill: rgb(255, 225, 204);" points="320.164 422.926 302.277 410.511 320.058 398.141 337.839 410.511"/>
    <polygon style="stroke: rgb(0, 0, 0); fill: rgb(255, 166, 102);" points="302.094 422.926 302.277 435.252 284.496 422.882 284.496 398.141 302.277 385.771"/>
    <polygon style="stroke: rgb(0, 0, 0); fill: rgb(255, 106, 0);" points="338.234 422.926 337.839 435.252 355.62 422.882 355.62 398.141 337.839 385.771"/>
    <line style="fill: rgb(216, 216, 216); stroke: rgb(0, 0, 0);" x1="320.058" y1="472.362" x2="320.058" y2="422.882"/>
    <line style="fill: rgb(216, 216, 216); stroke: rgb(0, 0, 0);" x1="284.584" y1="397.821" x2="284.496" y2="410.511"/>
    <polyline style="stroke: rgb(0, 0, 0); fill: rgb(255, 225, 204);" points="337.839 410.511 355.62 422.882 337.839 435.252 337.839 410.511"/>
    <polyline style="stroke: rgb(0, 0, 0); fill: rgb(255, 225, 204);" points="302.277 410.511 284.496 422.882 302.277 435.252 302.277 410.511"/>
    <polyline style="stroke: rgb(0, 0, 0); fill: rgb(255, 166, 103);" points="320.058 422.882 320.058 472.362 373.401 435.252 373.401 385.771 355.62 398.141 355.62 422.882 337.839 435.252 337.839 410.511 320.058 422.882"/>
  </g>
  <g transform="matrix(1, 0, 0, 1, -167.75351, -177.809006)">
    <polygon style="stroke: rgb(0, 0, 0); fill: rgb(103, 141, 255);" points="323.92 351.757 377.264 314.647 377.264 265.166 359.482 252.796 341.701 265.166 341.701 289.906 323.92 277.536 306.14 289.906 306.14 265.166 288.359 252.796 270.577 265.166 270.577 314.647" transform="matrix(0, -1, 1, 0, 21.644005, 626.196999)"/>
    <polygon style="stroke: rgb(0, 0, 0); fill: rgb(0, 64, 255);" points="287.377 350.345 269.165 337.703 286.946 325.333 304.726 337.703" transform="matrix(0, -1, 1, 0, -50.893494, 624.784515)"/>
    <polygon style="stroke: rgb(0, 0, 0); fill: rgb(0, 64, 255);" points="286.273 279.221 269.165 266.579 286.946 254.209 304.726 266.579" transform="matrix(0, -1, 1, 0, 20.230507, 553.660515)"/>
    <polygon style="stroke: rgb(0, 0, 0); fill: rgb(0, 64, 255);" points="311.678 314.669 293.791 302.254 311.572 289.884 329.353 302.254" transform="matrix(0, -1, 1, 0, 9.295486, 613.848495)"/>
    <polygon style="stroke: rgb(0, 0, 0); fill: rgb(204, 217, 255);" points="320.257 341.363 320.441 353.689 302.66 341.319 302.66 316.578 320.441 304.208" transform="matrix(0, -1, 1, 0, -17.397995, 640.499008)"/>
    <polygon style="stroke: rgb(0, 0, 0); fill: rgb(103, 141, 255);" points="303.054 288.02 302.659 300.346 320.441 287.976 320.441 263.235 302.659 250.865" transform="matrix(0, -1, 1, 0, 35.944496, 587.15551)"/>
    <line style="fill: rgb(216, 216, 216); stroke: rgb(0, 0, 0);" x1="348.661" y1="327.017" x2="348.661" y2="277.537" transform="matrix(0, -1, 1, 0, 46.384018, 650.938004)"/>
    <line style="fill: rgb(216, 216, 216); stroke: rgb(0, 0, 0);" x1="305.248" y1="331.45" x2="305.161" y2="344.14" transform="matrix(0, -1, 1, 0, -32.590515, 642.999512)"/>
    <polyline style="stroke: rgb(0, 0, 0); fill: rgb(0, 64, 255);" points="315.029 263.235 332.811 275.606 315.029 287.976 315.029 263.235" transform="matrix(0, -1, 1, 0, 48.314499, 599.525497)"/>
    <polyline style="stroke: rgb(0, 0, 0); fill: rgb(0, 64, 255);" points="332.811 316.578 315.029 328.949 332.811 341.319 332.811 316.578" transform="matrix(0, -1, 1, 0, -5.028503, 652.8685)"/>
    <polyline style="stroke: rgb(0, 0, 0); fill: rgb(204, 217, 255);" points="303.433 269.421 303.433 318.901 356.777 281.791 356.777 232.31 338.996 244.68 338.996 269.421 321.214 281.791 321.214 257.05 303.433 269.421" transform="matrix(0, -1, 1, 0, 54.499512, 605.71051)"/>
  </g>
</svg>